<?xml version="1.0" encoding="iso-8859-1"?>
<!-- Generator: Adobe Illustrator 19.0.0, SVG Export Plug-In . SVG Version: 6.00 Build 0)  -->
<svg version="1.1" id="Capa_1" xmlns="http://www.w3.org/2000/svg" xmlns:xlink="http://www.w3.org/1999/xlink" x="0px" y="0px"
	 viewBox="0 0 480 480" style="enable-background:new 0 0 480 480;" xml:space="preserve">
<g>
	<path style="fill:#68C9BA;" d="M456,280h-56H224h-56c-8.84,0-16,7.16-16,16v16h32h256h32v-16C472,287.16,464.84,280,456,280z"/>
	<path style="fill:#68C9BA;" d="M192,120v16h240v-16c0-8.84-7.16-16-16-16h-88H208C199.16,104,192,111.16,192,120z"/>
</g>
<path style="fill:#58B7A0;" d="M192,152c0,26.512,21.488,48,48,48h144c26.512,0,48-21.488,48-48v-16H192V152z"/>
<path style="fill:#EFE5D3;" d="M440,328c0,26.512-21.488,48-48,48H232c-26.512,0-48-21.488-48-48v-16h-32v16v80v21.056
	c17.528-11.608,39.208-21.088,64-21.056c34.688,0.048,39.672,18.664,80,24c54.304,7.184,73.784-22.784,128-16
	c19.24,2.408,35.392,8.52,48,14.872V312h-32V328z"/>
<path style="fill:#58B7A0;" d="M232,376h160c26.512,0,48-21.488,48-48v-16H184v16C184,354.512,205.488,376,232,376z"/>
<g>
	<path style="fill:#F7BA21;" d="M296,432c-40.328-5.336-45.312-23.952-80-24c-24.792-0.04-46.472,9.448-64,21.056V440
		c0,17.672,14.328,32,32,32h256c17.672,0,32-14.328,32-32v-9.128c-12.608-6.344-28.76-12.464-48-14.872
		C369.784,409.216,350.304,439.184,296,432z"/>
	<path style="fill:#F7BA21;" d="M296,248c-40.328-5.336-45.312-23.952-80-24c-8.376-0.016-16.368,1.136-24,3.008V248
		c0,17.672,14.328,32,32,32h176c17.672,0,32-14.328,32-32v-14.584c-2.648-0.496-5.224-1.064-8-1.416
		C369.784,225.216,350.304,255.184,296,248z"/>
</g>
<rect x="8" y="8" style="fill:#68C9BA;" width="320" height="64"/>
<polygon style="fill:#58B7A0;" points="328,104 328,72 8,72 8,104 208,104 "/>
<g>
	<path style="fill:#EFE5D3;" d="M33.696,332.6h-0.008C32.616,328.544,32,324.336,32,320c0-30.928,28.656-56,64-56
		c24.352,0,45.464,11.92,56.256,29.44C152.12,294.28,152,295.12,152,296c0-8.84,7.16-16,16-16h56c-17.672,0-32-14.328-32-32v-20.992
		c7.632-1.88,15.624-3.024,24-3.008c34.688,0.048,39.672,18.664,80,24c54.304,7.184,73.784-22.784,128-16
		c2.776,0.344,5.352,0.92,8,1.416V152c0,26.512-21.488,48-48,48H240c-26.512,0-48-21.488-48-48v-16v-16c0-8.84,7.16-16,16-16H8v264
		C8,352.624,18.424,339.288,33.696,332.6z"/>
	<path style="fill:#EFE5D3;" d="M8,368v40h48C29.488,408,8,390.088,8,368z"/>
	<path style="fill:#EFE5D3;" d="M104.848,375.368c-0.264-1.184-0.472-2.384-0.616-3.608C104.08,370.52,104,369.272,104,368
		c0,1.312-0.088,2.608-0.232,3.88c-0.152,1.272-0.376,2.52-0.664,3.752C98.824,394.072,79.376,408,56,408h96
		C128.512,408,109,393.936,104.848,375.368z"/>
</g>
<path style="fill:#F7BA21;" d="M152,312v-16c0-0.88,0.12-1.72,0.256-2.56C141.464,275.92,120.352,264,96,264
	c-35.344,0-64,25.072-64,56c0,4.336,0.616,8.544,1.688,12.6h0.008c1.544-0.672,3.144-1.272,4.776-1.808
	c-1.632,0.536-3.232,1.128-4.776,1.808C18.424,339.288,8,352.624,8,368c0,22.088,21.488,40,48,40
	c23.376,0,42.824-13.928,47.104-32.36c0.288-1.232,0.512-2.488,0.664-3.752c0.144-1.28,0.232-2.576,0.232-3.888
	c0,1.272,0.08,2.52,0.232,3.76c0.144,1.216,0.352,2.416,0.616,3.608C109,393.936,128.512,408,152,408v-80V312z M39.536,330.464
	c1.304-0.4,2.64-0.752,4-1.056C42.176,329.72,40.84,330.064,39.536,330.464z M45,329.096c1.296-0.256,2.624-0.456,3.96-0.616
	C47.624,328.64,46.296,328.84,45,329.096z M50.472,328.288C52.288,328.112,54.128,328,56,328
	C54.128,328,52.288,328.112,50.472,328.288z"/>
<g>
	<path style="fill:#353535;" d="M456,272h-24.208c5.08-6.704,8.208-14.96,8.208-24v-14.584V152v-16v-16c0-13.232-10.768-24-24-24
		h-80V72V8c0-4.424-3.584-8-8-8H8C3.584,0,0,3.576,0,8v64v32v304c0,4.424,3.584,8,8,8h136v13.056V440c0,22.056,17.944,40,40,40h256
		c22.056,0,40-17.944,40-40v-9.136V312v-16C480,282.768,469.232,272,456,272z M184,216H56v-48h128V216z M200,144h224v8
		c0,22.056-17.944,40-40,40H240c-22.056,0-40-17.944-40-40V144z M184.824,114.096c-0.12,0.472-0.272,0.92-0.368,1.392
		C184.176,116.96,184,118.456,184,120v16v16H48c-4.416,0-8,3.576-8,8v64c0,4.424,3.584,8,8,8h136v16
		c0,2.544,0.296,5.008,0.752,7.416c0.144,0.768,0.376,1.496,0.568,2.248c0.408,1.624,0.88,3.216,1.48,4.76
		c0.312,0.808,0.656,1.584,1.024,2.368c0.672,1.448,1.432,2.832,2.272,4.176c0.432,0.696,0.84,1.392,1.304,2.056
		c0.224,0.312,0.392,0.672,0.624,0.976H168c-6.616,0-12.608,2.688-16.96,7.032C137.528,264.656,117.52,256,96,256
		c-39.696,0-72,28.712-72,64c0,2.712,0.264,5.464,0.68,8.232c-3.144,1.824-6.04,3.92-8.68,6.24V112h169.368
		C185.128,112.672,185,113.4,184.824,114.096z M138.976,321.36c-0.752,0.152-1.488,0.312-2.224,0.488
		c-1.216,0.296-2.4,0.632-3.576,0.992c-0.688,0.208-1.384,0.416-2.056,0.648c-1.24,0.432-2.44,0.912-3.64,1.416
		c-0.56,0.232-1.136,0.448-1.688,0.696c-1.568,0.712-3.088,1.496-4.56,2.328c-0.144,0.08-0.296,0.144-0.44,0.232
		c-1.616,0.936-3.168,1.944-4.656,3.016c-0.416,0.304-0.8,0.632-1.208,0.944c-1.04,0.792-2.056,1.592-3.024,2.44
		c-0.496,0.44-0.96,0.904-1.44,1.352c-0.816,0.776-1.624,1.568-2.384,2.392c-0.472,0.512-0.928,1.04-1.376,1.576
		c-0.696,0.824-1.36,1.656-1.992,2.512c-0.224,0.304-0.496,0.584-0.712,0.896c-0.184-0.264-0.424-0.504-0.616-0.76
		c-0.864-1.176-1.784-2.304-2.752-3.408c-0.336-0.384-0.648-0.776-1-1.144c-1.344-1.432-2.76-2.8-4.28-4.088
		c-0.24-0.2-0.496-0.384-0.744-0.576c-1.312-1.072-2.68-2.088-4.104-3.048c-0.512-0.344-1.032-0.664-1.552-0.992
		c-1.296-0.808-2.632-1.568-4.008-2.288c-0.504-0.264-1-0.536-1.512-0.792c-1.88-0.912-3.808-1.744-5.808-2.472
		c-0.184-0.064-0.384-0.112-0.576-0.176c-1.816-0.632-3.688-1.176-5.592-1.648c-0.64-0.16-1.288-0.288-1.936-0.424
		c-1.568-0.336-3.16-0.608-4.776-0.832c-0.656-0.088-1.304-0.192-1.968-0.256C60.56,320.152,58.304,320,56,320
		c-2.44,0-4.824,0.176-7.176,0.44c-0.688,0.072-1.368,0.176-2.056,0.272c-1.928,0.272-3.816,0.632-5.672,1.072
		c-0.344,0.08-0.704,0.112-1.048,0.2C40.016,321.312,40,320.656,40,320c0-26.472,25.12-48,56-48c19.776,0,37.912,8.92,48.008,23.44
		C144,295.624,144,295.816,144,296v16v8.496c-0.448,0.056-0.872,0.168-1.312,0.224C141.44,320.904,140.2,321.112,138.976,321.36z
		 M16,368c0-12.848,9.568-23.872,23.24-28.96c0.584-0.216,1.152-0.464,1.744-0.656c2.032-0.664,4.152-1.184,6.336-1.576
		c0.488-0.088,0.984-0.152,1.472-0.224C51.144,336.24,53.536,336,56,336c22.056,0,40,14.352,40,32s-17.944,32-40,32
		S16,385.648,16,368z M112.656,373.752c-0.008-0.04,0.008-0.08,0-0.12c-0.44-1.976-0.656-3.816-0.656-5.632
		c0-2.08,0.288-4.104,0.768-6.08c0.16-0.656,0.44-1.272,0.648-1.912c0.416-1.288,0.864-2.56,1.472-3.784
		c0.352-0.712,0.8-1.384,1.208-2.072c0.648-1.072,1.336-2.128,2.128-3.136c0.528-0.672,1.104-1.312,1.688-1.944
		c0.864-0.928,1.776-1.824,2.76-2.672c0.664-0.576,1.344-1.152,2.064-1.688c1.08-0.808,2.232-1.544,3.416-2.256
		c0.752-0.448,1.488-0.92,2.288-1.328c1.36-0.704,2.808-1.288,4.272-1.856c0.728-0.28,1.424-0.616,2.176-0.864
		c2.224-0.728,4.544-1.328,6.944-1.728c0.04-0.008,0.08-0.024,0.12-0.032c0.016,0,0.032,0,0.04,0v62.712
		C128.08,396.76,115.584,386.576,112.656,373.752z M160,408v-80v-8h16v8c0,30.872,25.12,56,56,56h160c30.88,0,56-25.128,56-56v-8h16
		v98.464c-12.76-5.24-25.824-8.752-39.008-10.4c-28.696-3.56-48.216,2.496-67.088,8.376c-18.16,5.656-35.32,10.992-60.848,7.632
		c-18.064-2.392-28.384-7.576-38.368-12.592c-11.2-5.624-22.784-11.448-42.672-11.48c-0.056,0-0.104,0-0.168,0
		c-18.672,0-37.4,5.104-55.848,15.024V408z M192,320h240v8c0,22.056-17.944,40-40,40H232c-22.056,0-40-17.944-40-40V320z M464,296v8
		h-24H184h-24v-8c0-4.416,3.592-8,8-8h56h176h56C460.408,288,464,291.584,464,296z M224,272c-13.232,0-24-10.768-24-24v-14.528
		c5.448-0.992,10.688-1.624,15.992-1.472c16.104,0.024,24.672,4.328,35.512,9.776c10.648,5.352,22.712,11.416,43.448,14.16
		c29.024,3.856,48.696-2.28,67.712-8.216c18.04-5.624,35.08-10.936,60.344-7.776h0.008c0.328,0.04,0.656,0.088,0.984,0.136V248
		c0,13.232-10.768,24-24,24H224z M424,223.976c-28.136-3.312-47.448,2.648-66.096,8.464c-18.168,5.656-35.328,10.992-60.848,7.632
		c-18.064-2.392-28.384-7.576-38.368-12.592c-11.2-5.624-22.784-11.448-42.664-11.48c-0.064,0-0.128,0-0.192,0
		c-5.232,0-10.496,0.56-15.824,1.384v-26.272C210.176,201.52,224.336,208,240,208h144c15.664,0,29.824-6.48,40-16.888V223.976z
		 M424,120v8H200v-8c0-4.416,3.592-8,8-8h120h88C420.408,112,424,115.584,424,120z M208,96H16V80h304v16H208z M16,16h304v48H16V16z
		 M104,392.6c1.856,2.648,3.984,5.12,6.376,7.4H97.624C100.016,397.72,102.144,395.24,104,392.6z M464,440c0,13.232-10.768,24-24,24
		H184c-13.232,0-24-10.768-24-24v-6.576C178.592,421.856,197.36,416,215.848,416c0.04,0,0.088,0,0.136,0
		c16.104,0.024,24.672,4.328,35.512,9.776c10.648,5.352,22.712,11.416,43.448,14.16c29.024,3.856,48.696-2.28,67.712-8.216
		c18.04-5.624,35.08-10.944,60.344-7.776c13.856,1.736,27.632,5.752,40.992,11.944V440H464z"/>
	<rect x="224" y="336" style="fill:#353535;" width="64" height="16"/>
	<rect x="336" y="336" style="fill:#353535;" width="64" height="16"/>
	<rect x="240" y="160" style="fill:#353535;" width="48" height="16"/>
	<rect x="336" y="160" style="fill:#353535;" width="48" height="16"/>
	<rect x="400" y="432" style="fill:#353535;" width="16" height="16"/>
	<rect x="192" y="432" style="fill:#353535;" width="16" height="16"/>
	<rect x="224" y="432" style="fill:#353535;" width="16" height="16"/>
	<rect x="32" y="368" style="fill:#353535;" width="16" height="16"/>
	<rect x="56" y="352" style="fill:#353535;" width="16" height="16"/>
	<rect x="80" y="288" style="fill:#353535;" width="16" height="16"/>
	<rect x="112" y="296" style="fill:#353535;" width="16" height="16"/>
</g>
<g>
</g>
<g>
</g>
<g>
</g>
<g>
</g>
<g>
</g>
<g>
</g>
<g>
</g>
<g>
</g>
<g>
</g>
<g>
</g>
<g>
</g>
<g>
</g>
<g>
</g>
<g>
</g>
<g>
</g>
</svg>
