<?xml version="1.0" encoding="iso-8859-1"?>
<!-- Generator: Adobe Illustrator 19.0.0, SVG Export Plug-In . SVG Version: 6.00 Build 0)  -->
<svg version="1.1" id="Capa_1" xmlns="http://www.w3.org/2000/svg" xmlns:xlink="http://www.w3.org/1999/xlink" x="0px" y="0px"
	 viewBox="0 0 512 512" style="enable-background:new 0 0 512 512;" xml:space="preserve">
<path style="fill:#434259;" d="M474.471,286.379H37.529c-4.284,0-7.758-3.472-7.758-7.758v-27.536
	c0-60.428,23.531-117.24,66.261-159.967c42.729-42.73,99.54-66.261,159.967-66.261c60.428,0,117.24,23.531,159.967,66.261
	c42.73,42.729,66.261,99.539,66.261,159.967v27.536C482.229,282.906,478.755,286.379,474.471,286.379z M45.287,270.864h421.427
	v-19.779c0-116.188-94.526-210.713-210.713-210.713S45.287,134.897,45.287,251.085V270.864z"/>
<path style="fill:#54D195;" d="M387.935,141.565c-5.014-8.274-15.829-10.925-24.103-5.909c-22.317,13.529-35.64,37.172-35.64,63.246
	c0,9.676,7.872,17.549,17.549,17.549s17.549-7.872,17.549-17.549c0-13.698,7.006-26.121,18.739-33.233
	C390.301,160.652,392.952,149.839,387.935,141.565z"/>
<path style="fill:#E24B4B;" d="M438.085,214.897c-8.425-12.031-21.029-20.061-35.492-22.611
	c-14.468-2.552-29.056,0.683-41.086,9.108c-5.842,4.091-10.73,9.173-14.516,14.969c-3.786-5.795-8.675-10.878-14.516-14.969
	c-12.029-8.424-26.619-11.66-41.086-9.108h0.001c-14.464,2.55-27.069,10.579-35.492,22.611c-8.425,12.03-11.659,26.622-9.109,41.086
	l8.021,45.493c2.551,14.463,10.58,27.068,22.612,35.492c9.348,6.545,20.241,9.959,31.42,9.959c3.209,0,6.441-0.281,9.665-0.85
	c10.875-1.917,20.698-6.933,28.485-14.419c7.787,7.484,17.61,12.501,28.484,14.419c3.226,0.569,6.457,0.85,9.665,0.85
	c11.178,0,22.073-3.412,31.42-9.959c12.031-8.425,20.061-21.029,22.611-35.492l8.021-45.492
	C449.744,241.518,446.51,226.928,438.085,214.897z"/>
<path style="fill:#C14444;" d="M405.101,192.791c18.737,8.121,29.744,32.164,25.202,57.925l-8.958,50.805
	c-4.226,23.969-20.594,41.939-39.27,45.308c1.024,0.057,2.046,0.096,3.066,0.096c11.178,0,22.073-3.412,31.42-9.959
	c12.031-8.425,20.061-21.029,22.611-35.492l8.021-45.492c2.551-14.464-0.684-29.056-9.108-41.086
	C430.151,203.567,418.51,195.79,405.101,192.791z"/>
<path style="fill:#FF5F5F;" d="M346.991,181.87L346.991,181.87c-32.038,0-58.102,26.064-58.102,58.101v49.191
	c0,32.037,26.064,58.101,58.102,58.101c32.037,0,58.101-26.064,58.101-58.101v-49.191
	C405.091,207.934,379.027,181.87,346.991,181.87z"/>
<g>
	<path style="fill:#39B375;" d="M237.125,156.825c11.233-22.652,1.975-50.122-20.678-61.354
		c-22.653-11.233-50.122-1.975-61.355,20.678c-7.118,14.356-5.998,30.64,1.535,43.507c-3.183,2.483-5.872,5.701-7.784,9.56
		c-6.823,13.759-1.2,30.443,12.559,37.264c13.759,6.823,30.443,1.2,37.264-12.559c1.914-3.858,2.847-7.947,2.897-11.983
		C216.367,180.146,230.007,171.181,237.125,156.825z"/>
	<path style="fill:#39B375;" d="M64.696,156.825c-11.233-22.652-1.975-50.122,20.678-61.354
		c22.653-11.233,50.122-1.975,61.355,20.678c7.118,14.356,5.998,30.64-1.535,43.507c3.183,2.483,5.872,5.701,7.784,9.56
		c6.823,13.759,1.2,30.443-12.559,37.264c-13.759,6.823-30.443,1.2-37.265-12.559c-1.914-3.858-2.847-7.947-2.897-11.983
		C85.455,180.146,71.814,171.181,64.696,156.825z"/>
</g>
<path style="fill:#54D195;" d="M196.693,107.622c0-25.285-20.498-45.782-45.782-45.782s-45.782,20.498-45.782,45.782
	c0,16.023,8.238,30.116,20.703,38.296c-1.748,3.639-2.728,7.716-2.728,12.023c0,15.357,12.449,27.806,27.806,27.806
	s27.806-12.449,27.806-27.806c0-4.307-0.98-8.384-2.728-12.023C188.455,137.737,196.693,123.645,196.693,107.622z"/>
<path style="fill:#FF8A57;" d="M150.911,177.99c-40.249,0-72.995,32.745-72.995,72.994c0,9,1.637,17.817,4.858,26.185l33.305,87.209
	c5.303,14.598,19.292,24.4,34.832,24.4s29.527-9.802,34.832-24.401l33.303-87.206c3.225-8.383,4.859-17.195,4.859-26.189
	C223.905,210.735,191.16,177.99,150.911,177.99z"/>
<g>
	<path style="fill:#F96E3E;" d="M150.911,177.99L150.911,177.99c19.449,0,35.271,32.745,35.271,72.994
		c0,8.994-0.79,17.805-2.348,26.189l-16.092,87.206c-2.563,14.599-9.322,24.401-16.831,24.401l0,0
		c15.54,0,29.527-9.802,34.832-24.401l33.303-87.206c3.225-8.383,4.859-17.195,4.859-26.189
		C223.905,210.735,191.16,177.99,150.911,177.99z"/>
	<path style="fill:#F96E3E;" d="M216.136,259.846h-99.984c-4.284,0-7.758-3.472-7.758-7.758s3.473-7.758,7.758-7.758h99.984
		c4.284,0,7.758,3.472,7.758,7.758S220.422,259.846,216.136,259.846z"/>
	<path style="fill:#F96E3E;" d="M162.331,329.818h-54.103c-4.284,0-7.758-3.472-7.758-7.758c0-4.285,3.473-7.758,7.758-7.758h54.103
		c4.284,0,7.758,3.472,7.758,7.758C170.088,326.346,166.615,329.818,162.331,329.818z"/>
</g>
<path style="fill:#C99363;" d="M37.256,338.932l28.541,107.349c6.396,24.06,28.25,40.863,53.145,40.863h274.118
	c24.895,0,46.748-16.803,53.146-40.863l28.54-107.349H37.256z"/>
<path style="fill:#BA7F4F;" d="M470.772,323.677c-4.144-1.103-8.389,1.363-9.49,5.504l-0.53,1.993h-38.919
	c0,0.659-0.057,1.327-0.19,1.993l-22.614,113.114c-4.811,24.06-21.243,40.863-39.964,40.863h33.994
	c24.895,0,46.748-16.803,53.146-40.863l30.071-113.114C477.376,329.027,474.913,324.778,470.772,323.677z"/>
<path style="fill:#F7E3AA;" d="M504.242,270.864H7.758c-4.284,0-7.758,3.472-7.758,7.758v52.553c0,4.285,3.473,7.758,7.758,7.758
	h496.485c4.285,0,7.758-3.472,7.758-7.758v-52.553C512,274.337,508.528,270.864,504.242,270.864z"/>
<path style="fill:#E0C48C;" d="M504.242,270.864h-37.764c3.633,0,6.577,3.472,6.577,7.758v52.553c0,4.285-2.945,7.758-6.577,7.758
	h37.764c4.285,0,7.758-3.472,7.758-7.758v-52.553C512,274.337,508.528,270.864,504.242,270.864z"/>
<g>
</g>
<g>
</g>
<g>
</g>
<g>
</g>
<g>
</g>
<g>
</g>
<g>
</g>
<g>
</g>
<g>
</g>
<g>
</g>
<g>
</g>
<g>
</g>
<g>
</g>
<g>
</g>
<g>
</g>
</svg>
