<?xml version="1.0" encoding="iso-8859-1"?>
<!-- Generator: Adobe Illustrator 19.0.0, SVG Export Plug-In . SVG Version: 6.00 Build 0)  -->
<svg version="1.1" id="Capa_1" xmlns="http://www.w3.org/2000/svg" xmlns:xlink="http://www.w3.org/1999/xlink" x="0px" y="0px"
	 viewBox="0 0 512 512" style="enable-background:new 0 0 512 512;" xml:space="preserve">
<path style="fill:#68686D;" d="M75.961,324.249H46.569c-17.185,0-31.118-13.932-31.118-31.118v-74.263
	c0-17.185,13.932-31.118,31.118-31.118h29.392V324.249z"/>
<path style="fill:#898890;" d="M440.7,512H111.166c-30.844,0-55.848-25.004-55.848-55.847V55.847C55.318,25.004,80.322,0,111.166,0
	h329.535c30.844,0,55.847,25.004,55.847,55.847v400.305C496.548,486.996,471.545,512,440.7,512z"/>
<path style="fill:#D7F3FF;" d="M132.844,463.873c-16.237,0-29.399-13.163-29.399-29.399V77.525
	c0-16.237,13.163-29.398,29.398-29.398h286.18c16.237,0,29.399,13.163,29.399,29.399v356.948c0,16.237-13.163,29.398-29.398,29.398
	H132.844z"/>
<path style="fill:#BDEBFF;" d="M193.662,434.474V77.525c0-16.237,13.163-29.398,29.398-29.398h-90.217
	c-16.237,0-29.398,13.163-29.398,29.398v356.948c0,16.237,13.163,29.399,29.399,29.399h90.217
	C206.824,463.874,193.662,450.711,193.662,434.474z"/>
<path style="fill:#FF737D;" d="M222.217,463.873h-66.842V329.155c0-13.815,11.199-25.015,25.015-25.015h16.814
	c13.815,0,25.015,11.199,25.015,25.015v134.718H222.217z"/>
<path style="fill:#FFDE55;" d="M289.06,463.873h-66.842V329.155c0-13.815,11.199-25.015,25.015-25.015h16.814
	c13.815,0,25.015,11.199,25.015,25.015v134.718H289.06z"/>
<circle style="fill:#D8D7DA;" cx="185.721" cy="106.469" r="45.109"/>
<g>
	<path style="fill:#C6C5CA;" d="M165.041,106.467c0-20.677,13.918-38.092,32.892-43.42c-3.887-1.092-7.981-1.688-12.217-1.688
		c-24.913,0-45.109,20.196-45.109,45.109s20.196,45.109,45.109,45.109c4.236,0,8.33-0.596,12.217-1.688
		C178.958,144.559,165.041,127.144,165.041,106.467z"/>
	<path style="fill:#C6C5CA;" d="M206.865,114.194H181.14c-4.267,0-7.726-3.458-7.726-7.726c0-4.267,3.459-7.726,7.726-7.726h25.726
		c4.267,0,7.726,3.459,7.726,7.726C214.592,110.735,211.133,114.194,206.865,114.194z"/>
</g>
<circle style="fill:#D8D7DA;" cx="275.934" cy="106.469" r="45.109"/>
<path style="fill:#C6C5CA;" d="M297.083,114.194h-25.726c-4.267,0-7.726-3.458-7.726-7.726c0-4.267,3.459-7.726,7.726-7.726h25.726
	c4.267,0,7.726,3.459,7.726,7.726C304.809,110.735,301.35,114.194,297.083,114.194z"/>
<circle style="fill:#D8D7DA;" cx="366.147" cy="106.469" r="45.109"/>
<g>
	<path style="fill:#C6C5CA;" d="M387.3,114.194h-25.726c-4.267,0-7.726-3.458-7.726-7.726c0-4.267,3.459-7.726,7.726-7.726H387.3
		c4.267,0,7.726,3.459,7.726,7.726C395.026,110.735,391.567,114.194,387.3,114.194z"/>
	<path style="fill:#C6C5CA;" d="M255.258,106.467c0-20.677,13.918-38.092,32.892-43.42c-3.887-1.092-7.981-1.688-12.217-1.688
		c-24.913,0-45.109,20.196-45.109,45.109s20.196,45.109,45.109,45.109c4.236,0,8.33-0.596,12.217-1.688
		C269.176,144.559,255.258,127.144,255.258,106.467z"/>
	<path style="fill:#C6C5CA;" d="M345.475,106.467c0-20.677,13.918-38.092,32.892-43.42c-3.887-1.092-7.981-1.688-12.217-1.688
		c-24.913,0-45.109,20.196-45.109,45.109s20.196,45.109,45.109,45.109c4.236,0,8.33-0.596,12.217-1.688
		C359.393,144.559,345.475,127.144,345.475,106.467z"/>
</g>
<rect x="103.44" y="143.288" style="fill:#92D8FF;" width="344.977" height="36.098"/>
<path style="fill:#F46262;" d="M185.628,367.603c0.013-11.023,3.247-21.764,9.124-31.09c6.505-10.321,11.59-20.327,15.397-28.765
	c-3.777-2.289-8.208-3.608-12.947-3.608h-16.814c-13.815,0-25.015,11.199-25.015,25.015v134.718h30.299
	C185.639,434.157,185.599,391.474,185.628,367.603z"/>
<path style="fill:#FFCD00;" d="M252.471,367.603c0.013-11.023,3.247-21.764,9.124-31.09c6.505-10.321,11.59-20.327,15.396-28.765
	c-3.777-2.289-8.208-3.608-12.947-3.608H247.23c-13.815,0-25.015,11.199-25.015,25.015v134.718h30.299
	C252.481,434.157,252.442,391.474,252.471,367.603z"/>
<path style="fill:#92DD7A;" d="M365.033,258.39v-42.62h-44.516v42.62c0,12.535-3.178,24.865-9.236,35.839l-12.986,23.522
	c-6.059,10.973-9.236,23.304-9.236,35.839v87.653c0,12.499,10.132,22.631,22.631,22.631h62.169
	c12.499,0,22.631-10.133,22.631-22.631v-87.654c0-12.535-3.178-24.865-9.236-35.839l-12.986-23.522
	C368.21,283.254,365.033,270.924,365.033,258.39z"/>
<path style="fill:#7EC66A;" d="M320.517,215.77v42.62c0,12.535-3.178,24.865-9.236,35.839l-12.986,23.522
	c-6.059,10.973-9.236,23.304-9.236,35.839v87.653c0,12.499,10.132,22.631,22.631,22.631h27.806
	c-40.342-52.994-4.907-152.683-0.169-175.78c5.494-26.783,25.707-29.704,25.707-29.704v-42.62L320.517,215.77L320.517,215.77z"/>
<path style="fill:#5AAA4F;" d="M359.637,242.205h-33.723c-8.759,0-15.925-7.166-15.925-15.925l0,0
	c0-8.759,7.166-15.925,15.925-15.925h33.723c8.759,0,15.925,7.166,15.925,15.925l0,0
	C375.562,235.039,368.396,242.205,359.637,242.205z"/>
<path style="fill:#72CEF7;" d="M181.14,161.331c0-9.926,8.121-18.048,18.048-18.048h-95.743v36.094h95.743
	C189.261,179.379,181.14,171.257,181.14,161.331z"/>
<g>
</g>
<g>
</g>
<g>
</g>
<g>
</g>
<g>
</g>
<g>
</g>
<g>
</g>
<g>
</g>
<g>
</g>
<g>
</g>
<g>
</g>
<g>
</g>
<g>
</g>
<g>
</g>
<g>
</g>
</svg>
